<svg width="110" height="150" viewBox="0 0 110 150" fill="none" xmlns="http://www.w3.org/2000/svg">
<path d="M92.407 110.343C57.41 115.571 53.77 77.007 53.77 77.007C53.77 77.007 97.988 82.632 102.321 66.362C111.765 30.902 19.7 -0.451046 10.515 7.14595C-3.278 18.554 18.007 129.892 27.967 138.854C52.273 160.725 124.832 105.5 92.407 110.343Z" stroke="white" stroke-width="12" stroke-linecap="round"/>
<path d="M47.25 55.7272C51.7938 53.1038 53.3506 47.2937 50.7272 42.7499C48.1039 38.2062 42.2938 36.6494 37.75 39.2727C33.2062 41.8961 31.6494 47.7062 34.2728 52.2499C36.8961 56.7937 42.7062 58.3505 47.25 55.7272Z" stroke="white" stroke-width="10"/>
</svg>
